<?xml version="1.0" encoding="UTF-8" standalone="no"?>
<!-- Created with Inkscape (http://www.inkscape.org/) -->

<svg
   xmlns:dc="http://purl.org/dc/elements/1.1/"
   xmlns:cc="http://creativecommons.org/ns#"
   xmlns:rdf="http://www.w3.org/1999/02/22-rdf-syntax-ns#"
   xmlns:svg="http://www.w3.org/2000/svg"
   xmlns="http://www.w3.org/2000/svg"
   xmlns:sodipodi="http://sodipodi.sourceforge.net/DTD/sodipodi-0.dtd"
   xmlns:inkscape="http://www.inkscape.org/namespaces/inkscape"
   width="210mm"
   height="297mm"
   viewBox="0 0 744.09448819 1052.3622047"
   id="svg2"
   version="1.1"
   inkscape:version="0.91 r13725"
   sodipodi:docname="art.svg">
  <defs
     id="defs4" />
  <sodipodi:namedview
     id="base"
     pagecolor="#ffffff"
     bordercolor="#666666"
     borderopacity="1.0"
     inkscape:pageopacity="0.0"
     inkscape:pageshadow="2"
     inkscape:zoom="1.4"
     inkscape:cx="278.87896"
     inkscape:cy="482.15832"
     inkscape:document-units="px"
     inkscape:current-layer="layer1"
     showgrid="false"
     inkscape:window-width="1920"
     inkscape:window-height="1138"
     inkscape:window-x="-8"
     inkscape:window-y="-8"
     inkscape:window-maximized="1"
     showguides="true"
     inkscape:guide-bbox="true">
    <inkscape:grid
       type="xygrid"
       id="grid4136" />
    <sodipodi:guide
       position="-110,818.57145"
       orientation="1,0"
       id="guide4712" />
  </sodipodi:namedview>
  <metadata
     id="metadata7">
    <rdf:RDF>
      <cc:Work
         rdf:about="">
        <dc:format>image/svg+xml</dc:format>
        <dc:type
           rdf:resource="http://purl.org/dc/dcmitype/StillImage" />
        <dc:title></dc:title>
      </cc:Work>
    </rdf:RDF>
  </metadata>
  <g
     inkscape:label="Layer 1"
     inkscape:groupmode="layer"
     id="layer1">
    <rect
       style="fill:#9afffc;fill-opacity:1;stroke:#000000;stroke-width:47.21923447;stroke-linecap:round;stroke-miterlimit:4;stroke-dasharray:none;stroke-opacity:1"
       id="rect4209"
       width="576.86237"
       height="394.92365"
       x="86.571365"
       y="338.01266"
       ry="5.2264528" />
    <rect
       style="fill:#654200;fill-opacity:1;stroke:none;stroke-width:20;stroke-linecap:round;stroke-miterlimit:4;stroke-dasharray:none;stroke-opacity:1"
       id="rect4138-0-33"
       width="90"
       height="224.99994"
       x="110.34453"
       y="488.86859"
       ry="0" />
    <rect
       style="fill:#ffffff;fill-opacity:1;stroke:#000000;stroke-width:1;stroke-linecap:round;stroke-miterlimit:4;stroke-dasharray:none;stroke-opacity:1"
       id="rect4219"
       width="10"
       height="10"
       x="150"
       y="502.36221"
       ry="3.1059554" />
    <path
       style="fill:#896221;fill-opacity:1;stroke:none;stroke-width:0.25253814;stroke-linecap:round;stroke-miterlimit:4;stroke-dasharray:none;stroke-opacity:1"
       d="m 144.7345,547.55377 c -2.87323,-0.33451 -4.96092,-0.89957 -8.30416,-2.24764 -4.94268,-1.993 -8.52338,-2.7636 -12.88547,-2.77307 -4.19858,-0.009 -9.05886,1.21298 -11.98536,3.01367 -0.68774,0.42317 -1.30663,0.7694 -1.37533,0.7694 -0.0687,0 -0.0954,-5.4821 -0.0593,-12.18245 l 0.0656,-12.18244 1.38359,-0.82674 c 1.51135,-0.90307 3.33939,-1.63997 5.68748,-2.29266 1.15331,-0.32058 2.57082,-0.42002 5.93464,-0.41634 5.20062,0.006 7.0369,0.37263 12.10359,2.41866 1.72616,0.69707 4.04932,1.48494 5.16257,1.75083 4.57713,1.09322 12.59441,1.25125 16.70022,0.32919 0.97228,-0.21835 3.13148,-0.94348 4.79823,-1.61141 4.67513,-1.87348 6.28802,-2.13517 13.13198,-2.13068 6.63032,0.004 8.98844,0.3262 16.79379,2.29204 4.43272,1.11642 6.22716,1.32575 7.43343,0.86712 l 0.64779,-0.24628 0,12.21483 c 0,10.90536 -0.0428,12.23126 -0.39946,12.36811 -0.9238,0.3545 -3.14999,0.0993 -6.26007,-0.71769 -7.01095,-1.84165 -12.64624,-2.66774 -18.14239,-2.65955 -5.46954,0.008 -8.61469,0.60309 -13.45761,2.54564 -1.76929,0.70969 -3.96382,1.37775 -5.27325,1.6053 -2.43059,0.42238 -8.53338,0.48089 -11.70043,0.11216 z"
       id="path4270"
       inkscape:connector-curvature="0" />
    <rect
       style="fill:#80d679;fill-opacity:1;stroke:none;stroke-width:20;stroke-linecap:round;stroke-miterlimit:4;stroke-dasharray:none;stroke-opacity:1"
       id="rect4138-0-7"
       width="90"
       height="13.661693"
       x="109.9874"
       y="481.57782"
       ry="3.5602539" />
    <path
       style="fill:#896221;fill-opacity:1;stroke:none;stroke-width:0.25253814;stroke-linecap:round;stroke-miterlimit:4;stroke-dasharray:none;stroke-opacity:1"
       d="m 145.05336,623.62047 c -2.87323,-0.33451 -4.96092,-0.89957 -8.30416,-2.24764 -4.94268,-1.993 -8.52338,-2.7636 -12.88547,-2.77307 -4.19858,-0.009 -9.05886,1.21298 -11.98536,3.01367 -0.68774,0.42317 -1.30663,0.7694 -1.37533,0.7694 -0.0687,0 -0.0954,-5.4821 -0.0593,-12.18245 l 0.0656,-12.18244 1.38359,-0.82674 c 1.51135,-0.90307 3.33939,-1.63997 5.68748,-2.29266 1.15331,-0.32058 2.57082,-0.42002 5.93464,-0.41634 5.20062,0.006 7.0369,0.37263 12.10359,2.41866 1.72616,0.69707 4.04932,1.48494 5.16257,1.75083 4.57713,1.09322 12.59441,1.25125 16.70022,0.32919 0.97228,-0.21835 3.13148,-0.94348 4.79823,-1.61141 4.67513,-1.87348 6.28802,-2.13517 13.13198,-2.13068 6.63032,0.004 8.98844,0.3262 16.79379,2.29204 4.43272,1.11642 6.22716,1.32575 7.43343,0.86712 l 0.64779,-0.24628 0,12.21483 c 0,10.90536 -0.0428,12.23126 -0.39946,12.36811 -0.9238,0.3545 -3.14999,0.0993 -6.26007,-0.71769 -7.01095,-1.84165 -12.64624,-2.66774 -18.14239,-2.65955 -5.46954,0.008 -8.61469,0.60309 -13.45761,2.54564 -1.76929,0.70969 -3.96382,1.37775 -5.27325,1.6053 -2.43059,0.42238 -8.53338,0.48089 -11.70043,0.11216 z"
       id="path4270-0"
       inkscape:connector-curvature="0" />
    <path
       style="fill:#896221;fill-opacity:1;stroke:none;stroke-width:0.25253814;stroke-linecap:round;stroke-miterlimit:4;stroke-dasharray:none;stroke-opacity:1"
       d="m 145.05336,706.80937 c -2.87323,-0.33451 -4.96092,-0.89957 -8.30416,-2.24764 -4.94268,-1.993 -8.52338,-2.7636 -12.88547,-2.77307 -4.19858,-0.009 -9.05886,1.21298 -11.98536,3.01367 -0.68774,0.42317 -1.30663,0.7694 -1.37533,0.7694 -0.0687,0 -0.0954,-5.4821 -0.0593,-12.18245 l 0.0656,-12.18244 1.38359,-0.82674 c 1.51135,-0.90307 3.33939,-1.63997 5.68748,-2.29266 1.15331,-0.32058 2.57082,-0.42002 5.93464,-0.41634 5.20062,0.006 7.0369,0.37263 12.10359,2.41866 1.72616,0.69707 4.04932,1.48494 5.16257,1.75083 4.57713,1.09322 12.59441,1.25125 16.70022,0.32919 0.97228,-0.21835 3.13148,-0.94348 4.79823,-1.61141 4.67513,-1.87348 6.28802,-2.13517 13.13198,-2.13068 6.63032,0.004 8.98844,0.3262 16.79379,2.29204 4.43272,1.11642 6.22716,1.32575 7.43343,0.86712 l 0.64779,-0.24628 0,12.21483 c 0,10.90536 -0.0428,12.23126 -0.39946,12.36811 -0.9238,0.3545 -3.14999,0.0993 -6.26007,-0.71769 -7.01095,-1.84165 -12.64624,-2.66774 -18.14239,-2.65955 -5.46954,0.008 -8.61469,0.60309 -13.45761,2.54564 -1.76929,0.70969 -3.96382,1.37775 -5.27325,1.6053 -2.43059,0.42238 -8.53338,0.48089 -11.70043,0.11216 z"
       id="path4270-0-7"
       inkscape:connector-curvature="0" />
    <rect
       style="fill:#ffffff;fill-opacity:1;stroke:#000000;stroke-width:1;stroke-linecap:round;stroke-miterlimit:4;stroke-dasharray:none;stroke-opacity:1"
       id="rect4219-9"
       width="10"
       height="10"
       x="149.55333"
       y="579.66156"
       ry="3.1059554" />
    <rect
       style="fill:#654200;fill-opacity:1;stroke:none;stroke-width:20;stroke-linecap:round;stroke-miterlimit:4;stroke-dasharray:none;stroke-opacity:1"
       id="rect4138-0-33-7"
       width="90"
       height="224.99994"
       x="197.61517"
       y="488.939"
       ry="0" />
    <path
       style="fill:#896221;fill-opacity:1;stroke:none;stroke-width:0.25253814;stroke-linecap:round;stroke-miterlimit:4;stroke-dasharray:none;stroke-opacity:1"
       d="m 232.00515,547.62416 c -2.87323,-0.33451 -4.96092,-0.89957 -8.30416,-2.24764 -4.94268,-1.993 -8.52338,-2.7636 -12.88547,-2.77307 -4.19858,-0.009 -9.05886,1.21298 -11.98536,3.01367 -0.68774,0.42317 -1.30663,0.7694 -1.37533,0.7694 -0.0687,0 -0.0954,-5.4821 -0.0593,-12.18245 l 0.0656,-12.18244 1.38359,-0.82674 c 1.51135,-0.90307 3.33939,-1.63997 5.68748,-2.29266 1.15331,-0.32058 2.57082,-0.42002 5.93464,-0.41634 5.20062,0.006 7.0369,0.37263 12.10359,2.41866 1.72616,0.69707 4.04932,1.48494 5.16257,1.75083 4.57713,1.09322 12.59441,1.25125 16.70022,0.32919 0.97228,-0.21835 3.13148,-0.94348 4.79823,-1.61141 4.67513,-1.87348 6.28802,-2.13517 13.13198,-2.13068 6.63032,0.004 8.98844,0.3262 16.79379,2.29204 4.43272,1.11642 6.22716,1.32575 7.43343,0.86712 l 0.64779,-0.24628 0,12.21483 c 0,10.90536 -0.0428,12.23126 -0.39946,12.36811 -0.9238,0.3545 -3.14999,0.0993 -6.26007,-0.71769 -7.01095,-1.84165 -12.64624,-2.66774 -18.14239,-2.65955 -5.46954,0.008 -8.61469,0.60309 -13.45761,2.54564 -1.76929,0.70969 -3.96382,1.37775 -5.27325,1.6053 -2.43059,0.42238 -8.53338,0.48089 -11.70043,0.11216 z"
       id="path4270-3"
       inkscape:connector-curvature="0" />
    <rect
       style="fill:#80d679;fill-opacity:1;stroke:none;stroke-width:20;stroke-linecap:round;stroke-miterlimit:4;stroke-dasharray:none;stroke-opacity:1"
       id="rect4138-0-7-5"
       width="90"
       height="13.661693"
       x="197.25804"
       y="481.64822"
       ry="3.5602539" />
    <path
       style="fill:#896221;fill-opacity:1;stroke:none;stroke-width:0.25253814;stroke-linecap:round;stroke-miterlimit:4;stroke-dasharray:none;stroke-opacity:1"
       d="m 231.81893,623.69086 c -2.87323,-0.33451 -4.96092,-0.89957 -8.30416,-2.24764 -4.94268,-1.993 -8.52338,-2.7636 -12.88547,-2.77307 -4.19858,-0.009 -9.05886,1.21298 -11.98536,3.01367 -0.68774,0.42317 -1.30663,0.7694 -1.37533,0.7694 -0.0687,0 -0.0954,-5.4821 -0.0593,-12.18245 l 0.0656,-12.18244 1.38359,-0.82674 c 1.51135,-0.90307 3.33939,-1.63997 5.68748,-2.29266 1.15331,-0.32058 2.57082,-0.42002 5.93464,-0.41634 5.20062,0.006 7.0369,0.37263 12.10359,2.41866 1.72616,0.69707 4.04932,1.48494 5.16257,1.75083 4.57713,1.09322 12.59441,1.25125 16.70022,0.32919 0.97228,-0.21835 3.13148,-0.94348 4.79823,-1.61141 4.67513,-1.87348 6.28802,-2.13517 13.13198,-2.13068 6.63032,0.004 8.98844,0.3262 16.79379,2.29204 4.43272,1.11642 6.22716,1.32575 7.43343,0.86712 l 0.64779,-0.24628 0,12.21483 c 0,10.90536 -0.0428,12.23126 -0.39946,12.36811 -0.9238,0.3545 -3.14999,0.0993 -6.26007,-0.71769 -7.01095,-1.84165 -12.64624,-2.66774 -18.14239,-2.65955 -5.46954,0.008 -8.61469,0.60309 -13.45761,2.54564 -1.76929,0.70969 -3.96382,1.37775 -5.27325,1.6053 -2.43059,0.42238 -8.53338,0.48089 -11.70043,0.11216 z"
       id="path4270-0-78"
       inkscape:connector-curvature="0" />
    <path
       style="fill:#896221;fill-opacity:1;stroke:none;stroke-width:0.25253814;stroke-linecap:round;stroke-miterlimit:4;stroke-dasharray:none;stroke-opacity:1"
       d="m 231.81893,706.87976 c -2.87323,-0.33451 -4.96092,-0.89957 -8.30416,-2.24764 -4.94268,-1.993 -8.52338,-2.7636 -12.88547,-2.77307 -4.19858,-0.009 -9.05886,1.21298 -11.98536,3.01367 -0.68774,0.42317 -1.30663,0.7694 -1.37533,0.7694 -0.0687,0 -0.0954,-5.4821 -0.0593,-12.18245 l 0.0656,-12.18244 1.38359,-0.82674 c 1.51135,-0.90307 3.33939,-1.63997 5.68748,-2.29266 1.15331,-0.32058 2.57082,-0.42002 5.93464,-0.41634 5.20062,0.006 7.0369,0.37263 12.10359,2.41866 1.72616,0.69707 4.04932,1.48494 5.16257,1.75083 4.57713,1.09322 12.59441,1.25125 16.70022,0.32919 0.97228,-0.21835 3.13148,-0.94348 4.79823,-1.61141 4.67513,-1.87348 6.28802,-2.13517 13.13198,-2.13068 6.63032,0.004 8.98844,0.3262 16.79379,2.29204 4.43272,1.11642 6.22716,1.32575 7.43343,0.86712 l 0.64779,-0.24628 0,12.21483 c 0,10.90536 -0.0428,12.23126 -0.39946,12.36811 -0.9238,0.3545 -3.14999,0.0993 -6.26007,-0.71769 -7.01095,-1.84165 -12.64624,-2.66774 -18.14239,-2.65955 -5.46954,0.008 -8.61469,0.60309 -13.45761,2.54564 -1.76929,0.70969 -3.96382,1.37775 -5.27325,1.6053 -2.43059,0.42238 -8.53338,0.48089 -11.70043,0.11216 z"
       id="path4270-0-7-7"
       inkscape:connector-curvature="0" />
    <rect
       style="fill:#ffffff;fill-opacity:1;stroke:#000000;stroke-width:1;stroke-linecap:round;stroke-miterlimit:4;stroke-dasharray:none;stroke-opacity:1"
       id="rect4219-9-6"
       width="10"
       height="10"
       x="236.82397"
       y="579.73193"
       ry="3.1059554" />
    <rect
       style="fill:#ffffff;fill-opacity:1;stroke:#000000;stroke-width:1;stroke-linecap:round;stroke-miterlimit:4;stroke-dasharray:none;stroke-opacity:1"
       id="rect4219-9-3-8"
       width="10"
       height="10"
       x="236.82397"
       y="662.05939"
       ry="3.1059554" />
    <rect
       style="fill:#654200;fill-opacity:1;stroke:none;stroke-width:20;stroke-linecap:round;stroke-miterlimit:4;stroke-dasharray:none;stroke-opacity:1"
       id="rect4138-0-33-6"
       width="90"
       height="351.77408"
       x="285.49844"
       y="361.65973"
       ry="0" />
    <path
       style="fill:#896221;fill-opacity:1;stroke:none;stroke-width:0.25253814;stroke-linecap:round;stroke-miterlimit:4;stroke-dasharray:none;stroke-opacity:1"
       d="m 319.88842,391.05051 c -2.87323,-0.33451 -4.96092,-0.89957 -8.30416,-2.24764 -4.94268,-1.993 -8.52338,-2.7636 -12.88547,-2.77307 -4.19858,-0.009 -9.05886,1.21298 -11.98536,3.01367 -0.68774,0.42317 -1.30663,0.7694 -1.37533,0.7694 -0.0687,0 -0.0954,-5.4821 -0.0593,-12.18245 l 0.0656,-12.18244 1.38359,-0.82674 c 1.51135,-0.90307 3.33939,-1.63997 5.68748,-2.29266 1.15331,-0.32058 2.57082,-0.42002 5.93464,-0.41634 5.20062,0.006 7.0369,0.37263 12.10359,2.41866 1.72616,0.69707 4.04932,1.48494 5.16257,1.75083 4.57713,1.09322 12.59441,1.25125 16.70022,0.32919 0.97228,-0.21835 3.13148,-0.94348 4.79823,-1.61141 4.67513,-1.87348 6.28802,-2.13517 13.13198,-2.13068 6.63032,0.004 8.98844,0.3262 16.79379,2.29204 4.43272,1.11642 6.22716,1.32575 7.43343,0.86712 l 0.64779,-0.24628 0,12.21483 c 0,10.90536 -0.0428,12.23126 -0.39946,12.36811 -0.9238,0.3545 -3.14999,0.0993 -6.26007,-0.71769 -7.01095,-1.84165 -12.64624,-2.66774 -18.14239,-2.65955 -5.46954,0.008 -8.61469,0.60309 -13.45761,2.54564 -1.76929,0.70969 -3.96382,1.37775 -5.27325,1.6053 -2.43059,0.42238 -8.53338,0.48089 -11.70043,0.11216 z"
       id="path4270-1"
       inkscape:connector-curvature="0" />
    <path
       style="fill:#896221;fill-opacity:1;stroke:none;stroke-width:0.25253814;stroke-linecap:round;stroke-miterlimit:4;stroke-dasharray:none;stroke-opacity:1"
       d="m 320.20728,467.11721 c -2.87323,-0.33451 -4.96092,-0.89957 -8.30416,-2.24764 -4.94268,-1.993 -8.52338,-2.7636 -12.88547,-2.77307 -4.19858,-0.009 -9.05886,1.21298 -11.98536,3.01367 -0.68774,0.42317 -1.30663,0.7694 -1.37533,0.7694 -0.0687,0 -0.0954,-5.4821 -0.0593,-12.18245 l 0.0656,-12.18244 1.38359,-0.82674 c 1.51135,-0.90307 3.33939,-1.63997 5.68748,-2.29266 1.15331,-0.32058 2.57082,-0.42002 5.93464,-0.41634 5.20062,0.006 7.0369,0.37263 12.10359,2.41866 1.72616,0.69707 4.04932,1.48494 5.16257,1.75083 4.57713,1.09322 12.59441,1.25125 16.70022,0.32919 0.97228,-0.21835 3.13148,-0.94348 4.79823,-1.61141 4.67513,-1.87348 6.28802,-2.13517 13.13198,-2.13068 6.63032,0.004 8.98844,0.3262 16.79379,2.29204 4.43272,1.11642 6.22716,1.32575 7.43343,0.86712 l 0.64779,-0.24628 0,12.21483 c 0,10.90536 -0.0428,12.23126 -0.39946,12.36811 -0.9238,0.3545 -3.14999,0.0993 -6.26007,-0.71769 -7.01095,-1.84165 -12.64624,-2.66774 -18.14239,-2.65955 -5.46954,0.008 -8.61469,0.60309 -13.45761,2.54564 -1.76929,0.70969 -3.96382,1.37775 -5.27325,1.6053 -2.43059,0.42238 -8.53338,0.48089 -11.70043,0.11216 z"
       id="path4270-0-5"
       inkscape:connector-curvature="0" />
    <path
       style="fill:#896221;fill-opacity:1;stroke:none;stroke-width:0.25253814;stroke-linecap:round;stroke-miterlimit:4;stroke-dasharray:none;stroke-opacity:1"
       d="m 320.20728,550.30611 c -2.87323,-0.33451 -4.96092,-0.89957 -8.30416,-2.24764 -4.94268,-1.993 -8.52338,-2.7636 -12.88547,-2.77307 -4.19858,-0.009 -9.05886,1.21298 -11.98536,3.01367 -0.68774,0.42317 -1.30663,0.7694 -1.37533,0.7694 -0.0687,0 -0.0954,-5.4821 -0.0593,-12.18245 l 0.0656,-12.18244 1.38359,-0.82674 c 1.51135,-0.90307 3.33939,-1.63997 5.68748,-2.29266 1.15331,-0.32058 2.57082,-0.42002 5.93464,-0.41634 5.20062,0.006 7.0369,0.37263 12.10359,2.41866 1.72616,0.69707 4.04932,1.48494 5.16257,1.75083 4.57713,1.09322 12.59441,1.25125 16.70022,0.32919 0.97228,-0.21835 3.13148,-0.94348 4.79823,-1.61141 4.67513,-1.87348 6.28802,-2.13517 13.13198,-2.13068 6.63032,0.004 8.98844,0.3262 16.79379,2.29204 4.43272,1.11642 6.22716,1.32575 7.43343,0.86712 l 0.64779,-0.24628 0,12.21483 c 0,10.90536 -0.0428,12.23126 -0.39946,12.36811 -0.9238,0.3545 -3.14999,0.0993 -6.26007,-0.71769 -7.01095,-1.84165 -12.64624,-2.66774 -18.14239,-2.65955 -5.46954,0.008 -8.61469,0.60309 -13.45761,2.54564 -1.76929,0.70969 -3.96382,1.37775 -5.27325,1.6053 -2.43059,0.42238 -8.53338,0.48089 -11.70043,0.11216 z"
       id="path4270-0-7-6"
       inkscape:connector-curvature="0" />
    <path
       style="fill:#896221;fill-opacity:1;stroke:none;stroke-width:0.25253814;stroke-linecap:round;stroke-miterlimit:4;stroke-dasharray:none;stroke-opacity:1"
       d="m 318.34144,625.54695 c -2.87323,-0.33451 -4.96092,-0.89957 -8.30416,-2.24764 -4.94268,-1.993 -8.52338,-2.7636 -12.88547,-2.77307 -4.19858,-0.009 -9.05886,1.21298 -11.98536,3.01367 -0.68774,0.42317 -1.30663,0.7694 -1.37533,0.7694 -0.0687,0 -0.0954,-5.4821 -0.0593,-12.18245 l 0.0656,-12.18244 1.38359,-0.82674 c 1.51135,-0.90307 3.33939,-1.63997 5.68748,-2.29266 1.15331,-0.32058 2.57082,-0.42002 5.93464,-0.41634 5.20062,0.006 7.0369,0.37263 12.10359,2.41866 1.72616,0.69707 4.04932,1.48494 5.16257,1.75083 4.57713,1.09322 12.59441,1.25125 16.70022,0.32919 0.97228,-0.21835 3.13148,-0.94348 4.79823,-1.61141 4.67513,-1.87348 6.28802,-2.13517 13.13198,-2.13068 6.63032,0.004 8.98844,0.3262 16.79379,2.29204 4.43272,1.11642 6.22716,1.32575 7.43343,0.86712 l 0.64779,-0.24628 0,12.21483 c 0,10.90536 -0.0428,12.23126 -0.39946,12.36811 -0.9238,0.3545 -3.14999,0.0993 -6.26007,-0.71769 -7.01095,-1.84165 -12.64624,-2.66774 -18.14239,-2.65955 -5.46954,0.008 -8.61469,0.60309 -13.45761,2.54564 -1.76929,0.70969 -3.96382,1.37775 -5.27325,1.6053 -2.43059,0.42238 -8.53338,0.48089 -11.70043,0.11216 z"
       id="path4270-1-9"
       inkscape:connector-curvature="0" />
    <path
       style="fill:#896221;fill-opacity:1;stroke:none;stroke-width:0.25253814;stroke-linecap:round;stroke-miterlimit:4;stroke-dasharray:none;stroke-opacity:1"
       d="m 318.6603,708.17966 c -2.87323,-0.33451 -4.96092,-0.89957 -8.30416,-2.24764 -4.94268,-1.993 -8.52338,-2.7636 -12.88547,-2.77307 -4.19858,-0.009 -9.05886,1.21298 -11.98536,3.01367 -0.68774,0.42317 -1.30663,0.7694 -1.37533,0.7694 -0.0687,0 -0.0954,-5.48211 -0.0593,-12.18246 l 0.0656,-12.18244 1.38359,-0.82674 c 1.51135,-0.90307 3.33939,-1.63997 5.68748,-2.29266 1.15331,-0.32058 2.57082,-0.42002 5.93464,-0.41634 5.20062,0.006 7.0369,0.37263 12.10359,2.41866 1.72616,0.69707 4.04932,1.48494 5.16257,1.75083 4.57713,1.09322 12.59441,1.25125 16.70022,0.32919 0.97228,-0.21835 3.13148,-0.94348 4.79823,-1.61141 4.67513,-1.87348 6.28802,-2.13517 13.13198,-2.13068 6.63032,0.004 8.98844,0.3262 16.79379,2.29204 4.43272,1.11642 6.22716,1.32575 7.43343,0.86712 l 0.64779,-0.24628 0,12.21483 c 0,10.90537 -0.0428,12.23127 -0.39946,12.36812 -0.9238,0.3545 -3.14999,0.0993 -6.26007,-0.71769 -7.01095,-1.84165 -12.64624,-2.66774 -18.14239,-2.65955 -5.46954,0.008 -8.61469,0.60309 -13.45761,2.54564 -1.76929,0.70969 -3.96382,1.37775 -5.27325,1.6053 -2.43059,0.42238 -8.53338,0.48089 -11.70043,0.11216 z"
       id="path4270-0-5-8"
       inkscape:connector-curvature="0" />
    <rect
       style="fill:#00ccff;fill-opacity:1;stroke:none;stroke-width:1;stroke-linecap:round;stroke-miterlimit:4;stroke-dasharray:none;stroke-opacity:1"
       id="rect4455"
       width="50.507545"
       height="352.03818"
       x="305.06604"
       y="361.41785"
       ry="0" />
    <rect
       style="fill:#89eeff;fill-opacity:1;stroke:none;stroke-width:1;stroke-linecap:round;stroke-miterlimit:4;stroke-dasharray:none;stroke-opacity:1"
       id="rect4457"
       width="4.0406103"
       height="40.911179"
       x="314.66251"
       y="411.42041" />
    <rect
       style="fill:#ffffff;fill-opacity:1;stroke:none;stroke-width:1;stroke-linecap:round;stroke-miterlimit:4;stroke-dasharray:none;stroke-opacity:1"
       id="rect4457-2"
       width="4.0406103"
       height="40.911179"
       x="322.23865"
       y="440.96738" />
    <rect
       style="fill:#89eeff;fill-opacity:1;stroke:none;stroke-width:1;stroke-linecap:round;stroke-miterlimit:4;stroke-dasharray:none;stroke-opacity:1"
       id="rect4457-0"
       width="4.0406103"
       height="40.911179"
       x="331.33002"
       y="411.67294" />
    <rect
       style="fill:#89eeff;fill-opacity:1;stroke:none;stroke-width:1;stroke-linecap:round;stroke-miterlimit:4;stroke-dasharray:none;stroke-opacity:1"
       id="rect4457-3"
       width="4.0406103"
       height="40.911179"
       x="335.87573"
       y="462.18057" />
    <rect
       style="fill:#89eeff;fill-opacity:1;stroke:none;stroke-width:1;stroke-linecap:round;stroke-miterlimit:4;stroke-dasharray:none;stroke-opacity:1"
       id="rect4457-9"
       width="4.0406103"
       height="40.911179"
       x="311.63208"
       y="477.83795" />
    <rect
       style="fill:#89eeff;fill-opacity:1;stroke:none;stroke-width:1;stroke-linecap:round;stroke-miterlimit:4;stroke-dasharray:none;stroke-opacity:1"
       id="rect4457-1"
       width="4.0406103"
       height="40.911179"
       x="322.74374"
       y="495.01053" />
    <rect
       style="fill:#ffffff;fill-opacity:1;stroke:none;stroke-width:1;stroke-linecap:round;stroke-miterlimit:4;stroke-dasharray:none;stroke-opacity:1"
       id="rect4457-4"
       width="4.0406103"
       height="40.911179"
       x="346.48233"
       y="490.96991" />
    <rect
       style="fill:#89eeff;fill-opacity:1;stroke:none;stroke-width:1;stroke-linecap:round;stroke-miterlimit:4;stroke-dasharray:none;stroke-opacity:1"
       id="rect4457-24"
       width="4.0406103"
       height="40.911179"
       x="337.89603"
       y="518.24408" />
    <rect
       style="fill:#89eeff;fill-opacity:1;stroke:none;stroke-width:1;stroke-linecap:round;stroke-miterlimit:4;stroke-dasharray:none;stroke-opacity:1"
       id="rect4457-8"
       width="4.0406103"
       height="40.911179"
       x="325.26913"
       y="546.02325" />
    <rect
       style="fill:#89eeff;fill-opacity:1;stroke:none;stroke-width:1;stroke-linecap:round;stroke-miterlimit:4;stroke-dasharray:none;stroke-opacity:1"
       id="rect4457-13"
       width="4.0406103"
       height="40.911179"
       x="310.62192"
       y="533.39636" />
    <rect
       style="fill:#89eeff;fill-opacity:1;stroke:none;stroke-width:1;stroke-linecap:round;stroke-miterlimit:4;stroke-dasharray:none;stroke-opacity:1"
       id="rect4457-48"
       width="4.0406103"
       height="40.911179"
       x="-347.74503"
       y="596.4046"
       transform="scale(-1,1)" />
    <rect
       style="fill:#89eeff;fill-opacity:1;stroke:none;stroke-width:1;stroke-linecap:round;stroke-miterlimit:4;stroke-dasharray:none;stroke-opacity:1"
       id="rect4457-2-4"
       width="4.0406103"
       height="40.911179"
       x="-340.16888"
       y="625.95154"
       transform="scale(-1,1)" />
    <rect
       style="fill:#ffffff;fill-opacity:1;stroke:none;stroke-width:1;stroke-linecap:round;stroke-miterlimit:4;stroke-dasharray:none;stroke-opacity:1"
       id="rect4457-0-7"
       width="4.0406103"
       height="40.911179"
       x="-331.07751"
       y="596.6571"
       transform="scale(-1,1)" />
    <rect
       style="fill:#89eeff;fill-opacity:1;stroke:none;stroke-width:1;stroke-linecap:round;stroke-miterlimit:4;stroke-dasharray:none;stroke-opacity:1"
       id="rect4457-3-6"
       width="4.0406103"
       height="40.911179"
       x="-326.5318"
       y="647.16473"
       transform="scale(-1,1)" />
    <rect
       style="fill:#89eeff;fill-opacity:1;stroke:none;stroke-width:1;stroke-linecap:round;stroke-miterlimit:4;stroke-dasharray:none;stroke-opacity:1"
       id="rect4457-9-5"
       width="4.0406103"
       height="40.911179"
       x="-350.77545"
       y="662.82214"
       transform="scale(-1,1)" />
    <rect
       style="fill:#89eeff;fill-opacity:1;stroke:none;stroke-width:1;stroke-linecap:round;stroke-miterlimit:4;stroke-dasharray:none;stroke-opacity:1"
       id="rect4457-1-7"
       width="4.0406103"
       height="40.911179"
       x="-339.66379"
       y="679.99469"
       transform="scale(-1,1)" />
    <rect
       style="fill:#ffffff;fill-opacity:1;stroke:none;stroke-width:1;stroke-linecap:round;stroke-miterlimit:4;stroke-dasharray:none;stroke-opacity:1"
       id="rect4457-4-5"
       width="4.0406103"
       height="40.911179"
       x="-315.9252"
       y="675.9541"
       transform="scale(-1,1)" />
    <rect
       style="fill:#89eeff;fill-opacity:1;stroke:none;stroke-width:1;stroke-linecap:round;stroke-miterlimit:4;stroke-dasharray:none;stroke-opacity:1"
       id="rect4457-24-9"
       width="4.0406103"
       height="40.911179"
       x="-324.51151"
       y="362.30179"
       transform="scale(-1,1)" />
    <rect
       style="fill:#89eeff;fill-opacity:1;stroke:none;stroke-width:1;stroke-linecap:round;stroke-miterlimit:4;stroke-dasharray:none;stroke-opacity:1"
       id="rect4457-8-2"
       width="4.0406103"
       height="40.911179"
       x="-317.44043"
       y="587.06073"
       transform="scale(-1,1)" />
    <rect
       style="fill:#89eeff;fill-opacity:1;stroke:none;stroke-width:1;stroke-linecap:round;stroke-miterlimit:4;stroke-dasharray:none;stroke-opacity:1"
       id="rect4457-13-8"
       width="4.0406103"
       height="40.911179"
       x="-348.75516"
       y="423.92108"
       transform="scale(-1,1)" />
    <rect
       style="fill:#ffffff;fill-opacity:1;stroke:none;stroke-width:1;stroke-linecap:round;stroke-miterlimit:4;stroke-dasharray:none;stroke-opacity:1"
       id="rect4457-24-9-2"
       width="4.0406103"
       height="40.911179"
       x="-343.95694"
       y="360.66025"
       transform="scale(-1,1)" />
    <rect
       style="fill:#654200;fill-opacity:1;stroke:none;stroke-width:20;stroke-linecap:round;stroke-miterlimit:4;stroke-dasharray:none;stroke-opacity:1"
       id="rect4138-0-33-9"
       width="90"
       height="144.99994"
       x="373.75"
       y="567.79333"
       ry="0" />
    <path
       style="fill:#896221;fill-opacity:1;stroke:none;stroke-width:0.25253814;stroke-linecap:round;stroke-miterlimit:4;stroke-dasharray:none;stroke-opacity:1"
       d="m 408.13996,626.4785 c -2.87323,-0.33451 -4.96092,-0.89957 -8.30416,-2.24764 -4.94268,-1.993 -8.52338,-2.7636 -12.88547,-2.77307 -4.19858,-0.009 -9.05886,1.21298 -11.98536,3.01367 -0.68774,0.42317 -1.30663,0.7694 -1.37533,0.7694 -0.0687,0 -0.0954,-5.4821 -0.0593,-12.18245 l 0.0656,-12.18244 1.38359,-0.82674 c 1.51135,-0.90307 3.33939,-1.63997 5.68748,-2.29266 1.15331,-0.32058 2.57082,-0.42002 5.93464,-0.41634 5.20062,0.006 7.0369,0.37263 12.10359,2.41866 1.72616,0.69707 4.04932,1.48494 5.16257,1.75083 4.57713,1.09322 12.59441,1.25125 16.70022,0.32919 0.97228,-0.21835 3.13148,-0.94348 4.79823,-1.61141 4.67513,-1.87348 6.28802,-2.13517 13.13198,-2.13068 6.63032,0.004 8.98844,0.3262 16.79379,2.29204 4.43272,1.11642 6.22716,1.32575 7.43343,0.86712 l 0.64779,-0.24628 0,12.21483 c 0,10.90536 -0.0428,12.23126 -0.39946,12.36811 -0.9238,0.3545 -3.14999,0.0993 -6.26007,-0.71769 -7.01095,-1.84165 -12.64624,-2.66774 -18.14239,-2.65955 -5.46954,0.008 -8.61469,0.60309 -13.45761,2.54564 -1.76929,0.70969 -3.96382,1.37775 -5.27325,1.6053 -2.43059,0.42238 -8.53338,0.48089 -11.70043,0.11216 z"
       id="path4270-5"
       inkscape:connector-curvature="0" />
    <rect
       style="fill:#80d679;fill-opacity:1;stroke:none;stroke-width:20;stroke-linecap:round;stroke-miterlimit:4;stroke-dasharray:none;stroke-opacity:1"
       id="rect4138-0-7-8"
       width="87.979698"
       height="13.661693"
       x="375.41315"
       y="560.5025"
       ry="3.5602539" />
    <path
       style="fill:#896221;fill-opacity:1;stroke:none;stroke-width:0.25253814;stroke-linecap:round;stroke-miterlimit:4;stroke-dasharray:none;stroke-opacity:1"
       d="m 408.45882,707.54522 c -2.87323,-0.33451 -4.96092,-0.89957 -8.30416,-2.24764 -4.94268,-1.993 -8.52338,-2.7636 -12.88547,-2.77307 -4.19858,-0.009 -9.05886,1.21298 -11.98536,3.01367 -0.68774,0.42317 -1.30663,0.7694 -1.37533,0.7694 -0.0687,0 -0.0954,-5.4821 -0.0593,-12.18245 l 0.0656,-12.18244 1.38359,-0.82674 c 1.51135,-0.90307 3.33939,-1.63997 5.68748,-2.29266 1.15331,-0.32058 2.57082,-0.42002 5.93464,-0.41634 5.20062,0.006 7.0369,0.37263 12.10359,2.41866 1.72616,0.69707 4.04932,1.48494 5.16257,1.75083 4.57713,1.09322 12.59441,1.25125 16.70022,0.32919 0.97228,-0.21835 3.13148,-0.94348 4.79823,-1.61141 4.67513,-1.87348 6.28802,-2.13517 13.13198,-2.13068 6.63032,0.004 8.98844,0.3262 16.79379,2.29204 4.43272,1.11642 6.22716,1.32575 7.43343,0.86712 l 0.64779,-0.24628 0,12.21483 c 0,10.90536 -0.0428,12.23126 -0.39946,12.36811 -0.9238,0.3545 -3.14999,0.0993 -6.26007,-0.71769 -7.01095,-1.84165 -12.64624,-2.66774 -18.14239,-2.65955 -5.46954,0.008 -8.61469,0.60309 -13.45761,2.54564 -1.76929,0.70969 -3.96382,1.37775 -5.27325,1.6053 -2.43059,0.42238 -8.53338,0.48089 -11.70043,0.11216 z"
       id="path4270-0-73"
       inkscape:connector-curvature="0" />
    <rect
       style="fill:#654200;fill-opacity:1;stroke:none;stroke-width:20;stroke-linecap:round;stroke-miterlimit:4;stroke-dasharray:none;stroke-opacity:1"
       id="rect4138-0-33-2"
       width="90"
       height="224.99994"
       x="462.32141"
       y="487.79333"
       ry="0" />
    <path
       style="fill:#896221;fill-opacity:1;stroke:none;stroke-width:0.25253814;stroke-linecap:round;stroke-miterlimit:4;stroke-dasharray:none;stroke-opacity:1"
       d="m 496.71139,546.47851 c -2.87323,-0.33451 -4.96092,-0.89957 -8.30416,-2.24764 -4.94268,-1.993 -8.52338,-2.7636 -12.88547,-2.77307 -4.19858,-0.009 -9.05886,1.21298 -11.98536,3.01367 -0.68774,0.42317 -1.30663,0.7694 -1.37533,0.7694 -0.0687,0 -0.0954,-5.4821 -0.0593,-12.18245 l 0.0656,-12.18244 1.38359,-0.82674 c 1.51135,-0.90307 3.33939,-1.63997 5.68748,-2.29266 1.15331,-0.32058 2.57082,-0.42002 5.93464,-0.41634 5.20062,0.006 7.0369,0.37263 12.10359,2.41866 1.72616,0.69707 4.04932,1.48494 5.16257,1.75083 4.57713,1.09322 12.59441,1.25125 16.70022,0.32919 0.97228,-0.21835 3.13148,-0.94348 4.79823,-1.61141 4.67513,-1.87348 6.28802,-2.13517 13.13198,-2.13068 6.63032,0.004 8.98844,0.3262 16.79379,2.29204 4.43272,1.11642 6.22716,1.32575 7.43343,0.86712 l 0.64779,-0.24628 0,12.21483 c 0,10.90536 -0.0428,12.23126 -0.39946,12.36811 -0.9238,0.3545 -3.14999,0.0993 -6.26007,-0.71769 -7.01095,-1.84165 -12.64624,-2.66774 -18.14239,-2.65955 -5.46954,0.008 -8.61469,0.60309 -13.45761,2.54564 -1.76929,0.70969 -3.96382,1.37775 -5.27325,1.6053 -2.43059,0.42238 -8.53338,0.48089 -11.70043,0.11216 z"
       id="path4270-00"
       inkscape:connector-curvature="0" />
    <rect
       style="fill:#80d679;fill-opacity:1;stroke:none;stroke-width:20;stroke-linecap:round;stroke-miterlimit:4;stroke-dasharray:none;stroke-opacity:1"
       id="rect4138-0-7-6"
       width="90"
       height="13.661693"
       x="461.96429"
       y="480.50256"
       ry="3.5602539" />
    <path
       style="fill:#896221;fill-opacity:1;stroke:none;stroke-width:0.25253814;stroke-linecap:round;stroke-miterlimit:4;stroke-dasharray:none;stroke-opacity:1"
       d="m 497.03025,628.54521 c -2.87323,-0.33451 -4.96092,-0.89957 -8.30416,-2.24764 -4.94268,-1.993 -8.52338,-2.7636 -12.88547,-2.77307 -4.19858,-0.009 -9.05886,1.21298 -11.98536,3.01367 -0.68774,0.42317 -1.30663,0.7694 -1.37533,0.7694 -0.0687,0 -0.0954,-5.4821 -0.0593,-12.18245 l 0.0656,-12.18244 1.38359,-0.82674 c 1.51135,-0.90307 3.33939,-1.63997 5.68748,-2.29266 1.15331,-0.32058 2.57082,-0.42002 5.93464,-0.41634 5.20062,0.006 7.0369,0.37263 12.10359,2.41866 1.72616,0.69707 4.04932,1.48494 5.16257,1.75083 4.57713,1.09322 12.59441,1.25125 16.70022,0.32919 0.97228,-0.21835 3.13148,-0.94348 4.79823,-1.61141 4.67513,-1.87348 6.28802,-2.13517 13.13198,-2.13068 6.63032,0.004 8.98844,0.3262 16.79379,2.29204 4.43272,1.11642 6.22716,1.32575 7.43343,0.86712 l 0.64779,-0.24628 0,12.21483 c 0,10.90536 -0.0428,12.23126 -0.39946,12.36811 -0.9238,0.3545 -3.14999,0.0993 -6.26007,-0.71769 -7.01095,-1.84165 -12.64624,-2.66774 -18.14239,-2.65955 -5.46954,0.008 -8.61469,0.60309 -13.45761,2.54564 -1.76929,0.70969 -3.96382,1.37775 -5.27325,1.6053 -2.43059,0.42238 -8.53338,0.48089 -11.70043,0.11216 z"
       id="path4270-0-70"
       inkscape:connector-curvature="0" />
    <path
       style="fill:#896221;fill-opacity:1;stroke:none;stroke-width:0.25253814;stroke-linecap:round;stroke-miterlimit:4;stroke-dasharray:none;stroke-opacity:1"
       d="m 497.03025,707.73411 c -2.87323,-0.33451 -4.96092,-0.89957 -8.30416,-2.24764 -4.94268,-1.993 -8.52338,-2.7636 -12.88547,-2.77307 -4.19858,-0.009 -9.05886,1.21298 -11.98536,3.01367 -0.68774,0.42317 -1.30663,0.7694 -1.37533,0.7694 -0.0687,0 -0.0954,-5.4821 -0.0593,-12.18245 l 0.0656,-12.18244 1.38359,-0.82674 c 1.51135,-0.90307 3.33939,-1.63997 5.68748,-2.29266 1.15331,-0.32058 2.57082,-0.42002 5.93464,-0.41634 5.20062,0.006 7.0369,0.37263 12.10359,2.41866 1.72616,0.69707 4.04932,1.48494 5.16257,1.75083 4.57713,1.09322 12.59441,1.25125 16.70022,0.32919 0.97228,-0.21835 3.13148,-0.94348 4.79823,-1.61141 4.67513,-1.87348 6.28802,-2.13517 13.13198,-2.13068 6.63032,0.004 8.98844,0.3262 16.79379,2.29204 4.43272,1.11642 6.22716,1.32575 7.43343,0.86712 l 0.64779,-0.24628 0,12.21483 c 0,10.90536 -0.0428,12.23126 -0.39946,12.36811 -0.9238,0.3545 -3.14999,0.0993 -6.26007,-0.71769 -7.01095,-1.84165 -12.64624,-2.66774 -18.14239,-2.65955 -5.46954,0.008 -8.61469,0.60309 -13.45761,2.54564 -1.76929,0.70969 -3.96382,1.37775 -5.27325,1.6053 -2.43059,0.42238 -8.53338,0.48089 -11.70043,0.11216 z"
       id="path4270-0-7-1"
       inkscape:connector-curvature="0" />
    <rect
       style="fill:#ffffff;fill-opacity:1;stroke:#000000;stroke-width:1;stroke-linecap:round;stroke-miterlimit:4;stroke-dasharray:none;stroke-opacity:1"
       id="rect4219-9-8"
       width="10"
       height="10"
       x="501.53021"
       y="578.5863"
       ry="3.1059554" />
    <rect
       style="fill:#654200;fill-opacity:1;stroke:none;stroke-width:20;stroke-linecap:round;stroke-miterlimit:4;stroke-dasharray:none;stroke-opacity:1"
       id="rect4138-0-33-28"
       width="90"
       height="299.28564"
       x="550.17859"
       y="412.79333"
       ry="0" />
    <rect
       style="fill:#ffffff;fill-opacity:1;stroke:#000000;stroke-width:1;stroke-linecap:round;stroke-miterlimit:4;stroke-dasharray:none;stroke-opacity:1"
       id="rect4219-8"
       width="10"
       height="10"
       x="589.83405"
       y="659.1441"
       ry="3.1059554" />
    <path
       style="fill:#896221;fill-opacity:1;stroke:none;stroke-width:0.25253814;stroke-linecap:round;stroke-miterlimit:4;stroke-dasharray:none;stroke-opacity:1"
       d="m 584.56854,471.47851 c -2.87323,-0.33451 -4.96092,-0.89957 -8.30416,-2.24764 -4.94268,-1.993 -8.52338,-2.7636 -12.88547,-2.77307 -4.19858,-0.009 -9.05886,1.21298 -11.98536,3.01367 -0.68774,0.42317 -1.30663,0.7694 -1.37533,0.7694 -0.0687,0 -0.0954,-5.4821 -0.0593,-12.18245 l 0.0656,-12.18244 1.38359,-0.82674 c 1.51135,-0.90307 3.33939,-1.63997 5.68748,-2.29266 1.15331,-0.32058 2.57082,-0.42002 5.93464,-0.41634 5.20062,0.006 7.0369,0.37263 12.10359,2.41866 1.72616,0.69707 4.04932,1.48494 5.16257,1.75083 4.57713,1.09322 12.59441,1.25125 16.70022,0.32919 0.97228,-0.21835 3.13148,-0.94348 4.79823,-1.61141 4.67513,-1.87348 6.28802,-2.13517 13.13198,-2.13068 6.63032,0.004 8.98844,0.3262 16.79379,2.29204 4.43272,1.11642 6.22716,1.32575 7.43343,0.86712 l 0.64779,-0.24628 0,12.21483 c 0,10.90536 -0.0428,12.23126 -0.39946,12.36811 -0.9238,0.3545 -3.14999,0.0993 -6.26007,-0.71769 -7.01095,-1.84165 -12.64624,-2.66774 -18.14239,-2.65955 -5.46954,0.008 -8.61469,0.60309 -13.45761,2.54564 -1.76929,0.70969 -3.96382,1.37775 -5.27325,1.6053 -2.43059,0.42238 -8.53338,0.48089 -11.70043,0.11216 z"
       id="path4270-14"
       inkscape:connector-curvature="0" />
    <rect
       style="fill:#80d679;fill-opacity:1;stroke:none;stroke-width:20;stroke-linecap:round;stroke-miterlimit:4;stroke-dasharray:none;stroke-opacity:1"
       id="rect4138-0-7-7"
       width="90"
       height="13.661693"
       x="549.82141"
       y="405.50256"
       ry="3.5602539" />
    <path
       style="fill:#896221;fill-opacity:1;stroke:none;stroke-width:0.25253814;stroke-linecap:round;stroke-miterlimit:4;stroke-dasharray:none;stroke-opacity:1"
       d="m 584.8874,547.54521 c -2.87323,-0.33451 -4.96092,-0.89957 -8.30416,-2.24764 -4.94268,-1.993 -8.52338,-2.7636 -12.88547,-2.77307 -4.19858,-0.009 -9.05886,1.21298 -11.98536,3.01367 -0.68774,0.42317 -1.30663,0.7694 -1.37533,0.7694 -0.0687,0 -0.0954,-5.4821 -0.0593,-12.18245 l 0.0656,-12.18244 1.38359,-0.82674 c 1.51135,-0.90307 3.33939,-1.63997 5.68748,-2.29266 1.15331,-0.32058 2.57082,-0.42002 5.93464,-0.41634 5.20062,0.006 7.0369,0.37263 12.10359,2.41866 1.72616,0.69707 4.04932,1.48494 5.16257,1.75083 4.57713,1.09322 12.59441,1.25125 16.70022,0.32919 0.97228,-0.21835 3.13148,-0.94348 4.79823,-1.61141 4.67513,-1.87348 6.28802,-2.13517 13.13198,-2.13068 6.63032,0.004 8.98844,0.3262 16.79379,2.29204 4.43272,1.11642 6.22716,1.32575 7.43343,0.86712 l 0.64779,-0.24628 0,12.21483 c 0,10.90536 -0.0428,12.23126 -0.39946,12.36811 -0.9238,0.3545 -3.14999,0.0993 -6.26007,-0.71769 -7.01095,-1.84165 -12.64624,-2.66774 -18.14239,-2.65955 -5.46954,0.008 -8.61469,0.60309 -13.45761,2.54564 -1.76929,0.70969 -3.96382,1.37775 -5.27325,1.6053 -2.43059,0.42238 -8.53338,0.48089 -11.70043,0.11216 z"
       id="path4270-0-8"
       inkscape:connector-curvature="0" />
    <path
       style="fill:#896221;fill-opacity:1;stroke:none;stroke-width:0.25253814;stroke-linecap:round;stroke-miterlimit:4;stroke-dasharray:none;stroke-opacity:1"
       d="m 584.8874,630.73411 c -2.87323,-0.33451 -4.96092,-0.89957 -8.30416,-2.24764 -4.94268,-1.993 -8.52338,-2.7636 -12.88547,-2.77307 -4.19858,-0.009 -9.05886,1.21298 -11.98536,3.01367 -0.68774,0.42317 -1.30663,0.7694 -1.37533,0.7694 -0.0687,0 -0.0954,-5.4821 -0.0593,-12.18245 l 0.0656,-12.18244 1.38359,-0.82674 c 1.51135,-0.90307 3.33939,-1.63997 5.68748,-2.29266 1.15331,-0.32058 2.57082,-0.42002 5.93464,-0.41634 5.20062,0.006 7.0369,0.37263 12.10359,2.41866 1.72616,0.69707 4.04932,1.48494 5.16257,1.75083 4.57713,1.09322 12.59441,1.25125 16.70022,0.32919 0.97228,-0.21835 3.13148,-0.94348 4.79823,-1.61141 4.67513,-1.87348 6.28802,-2.13517 13.13198,-2.13068 6.63032,0.004 8.98844,0.3262 16.79379,2.29204 4.43272,1.11642 6.22716,1.32575 7.43343,0.86712 l 0.64779,-0.24628 0,12.21483 c 0,10.90536 -0.0428,12.23126 -0.39946,12.36811 -0.9238,0.3545 -3.14999,0.0993 -6.26007,-0.71769 -7.01095,-1.84165 -12.64624,-2.66774 -18.14239,-2.65955 -5.46954,0.008 -8.61469,0.60309 -13.45761,2.54564 -1.76929,0.70969 -3.96382,1.37775 -5.27325,1.6053 -2.43059,0.42238 -8.53338,0.48089 -11.70043,0.11216 z"
       id="path4270-0-7-9"
       inkscape:connector-curvature="0" />
    <rect
       style="fill:#ffffff;fill-opacity:1;stroke:#000000;stroke-width:1;stroke-linecap:round;stroke-miterlimit:4;stroke-dasharray:none;stroke-opacity:1"
       id="rect4219-9-2"
       width="10"
       height="10"
       x="589.38739"
       y="580.01489"
       ry="3.1059554" />
    <path
       style="fill:#896221;fill-opacity:1;stroke:none;stroke-width:0.25253814;stroke-linecap:round;stroke-miterlimit:4;stroke-dasharray:none;stroke-opacity:1"
       d="m 585.4105,709.66652 c -2.87323,-0.33451 -4.96092,-0.89957 -8.30416,-2.24764 -4.94268,-1.993 -8.52338,-2.7636 -12.88547,-2.77307 -4.19858,-0.009 -9.05886,1.21298 -11.98536,3.01367 -0.68774,0.42317 -1.30663,0.7694 -1.37533,0.7694 -0.0687,0 -0.0954,-5.4821 -0.0593,-12.18245 l 0.0656,-12.18244 1.38359,-0.82674 c 1.51135,-0.90307 3.33939,-1.63997 5.68748,-2.29266 1.15331,-0.32058 2.57082,-0.42002 5.93464,-0.41634 5.20062,0.006 7.0369,0.37263 12.10359,2.41866 1.72616,0.69707 4.04932,1.48494 5.16257,1.75083 4.57713,1.09322 12.59441,1.25125 16.70022,0.32919 0.97228,-0.21835 3.13148,-0.94348 4.79823,-1.61141 4.67513,-1.87348 6.28802,-2.13517 13.13198,-2.13068 6.63032,0.004 8.98844,0.3262 16.79379,2.29204 4.43272,1.11642 6.22716,1.32575 7.43343,0.86712 l 0.64779,-0.24628 0,12.21483 c 0,10.90536 -0.0428,12.23126 -0.39946,12.36811 -0.9238,0.3545 -3.14999,0.0993 -6.26007,-0.71769 -7.01095,-1.84165 -12.64624,-2.66774 -18.14239,-2.65955 -5.46954,0.008 -8.61469,0.60309 -13.45761,2.54564 -1.76929,0.70969 -3.96382,1.37775 -5.27325,1.6053 -2.43059,0.42238 -8.53338,0.48089 -11.70043,0.11216 z"
       id="path4270-0-8-8"
       inkscape:connector-curvature="0" />
    <ellipse
       style="fill:#ffffff;fill-opacity:1;stroke:#000000;stroke-width:0.85915494;stroke-linecap:round;stroke-miterlimit:4;stroke-dasharray:none;stroke-opacity:1"
       id="path4708"
       cx="155"
       cy="534.86212"
       r="8.284709" />
    <rect
       style="fill:#000000;fill-opacity:1;stroke:#000000;stroke-width:0.70761663;stroke-linecap:round;stroke-miterlimit:4;stroke-dasharray:none;stroke-opacity:1"
       id="rect4710"
       width="19.578096"
       height="81.00692"
       x="186.28236"
       y="482.21609"
       ry="1.8156973" />
  </g>
</svg>
